<?xml version="1.0" encoding="UTF-8" standalone="no"?>
<svg width="256px" height="256px" viewBox="0 0 256 256" version="1.1" xmlns="http://www.w3.org/2000/svg" xmlns:xlink="http://www.w3.org/1999/xlink" preserveAspectRatio="xMidYMid">
    <g>
        <rect fill="#252F3E" x="0" y="0" width="256" height="256" rx="28"></rect>
        <path d="M80.398,143.5 L69.5,143.5 L69.5,112.5 L80.398,112.5 L80.398,143.5 Z M74.949,108.5 C71.759,108.5 69.5,106.241 69.5,103.051 C69.5,99.861 71.759,97.602 74.949,97.602 C78.139,97.602 80.398,99.861 80.398,103.051 C80.398,106.241 78.139,108.5 74.949,108.5 Z M102.398,143.5 L91.5,143.5 L91.5,97.5 L102.398,97.5 L102.398,143.5 Z M124.398,143.5 L113.5,143.5 L113.5,112.5 L124.398,112.5 L124.398,117.5 C127.398,113.5 131.898,111.5 137.398,111.5 C147.398,111.5 153.398,118.5 153.398,129.5 L153.398,143.5 L142.5,143.5 L142.5,131.5 C142.5,125.5 139.5,122.5 134.5,122.5 C129.5,122.5 124.398,125.5 124.398,133.5 L124.398,143.5 Z M175.398,144.5 C164.398,144.5 156.398,136.5 156.398,127.5 C156.398,118.5 164.398,110.5 175.398,110.5 C186.398,110.5 194.398,118.5 194.398,127.5 C194.398,136.5 186.398,144.5 175.398,144.5 Z M175.398,134.5 C180.398,134.5 183.398,131.5 183.398,127.5 C183.398,123.5 180.398,120.5 175.398,120.5 C170.398,120.5 167.398,123.5 167.398,127.5 C167.398,131.5 170.398,134.5 175.398,134.5 Z" fill="#FFFFFF"></path>
    </g>
</svg>
