<?xml version="1.0" encoding="UTF-8" standalone="no"?>
<svg width="256px" height="256px" viewBox="0 0 256 256" version="1.1" xmlns="http://www.w3.org/2000/svg" xmlns:xlink="http://www.w3.org/1999/xlink" preserveAspectRatio="xMidYMid">
    <g>
        <rect fill="#092E20" x="0" y="0" width="256" height="256" rx="28"></rect>
        <path d="M186.377,94.151 L186.377,161.919 C186.377,183.764 184.707,194.808 179.696,203.663 C175.105,211.998 168.345,217.428 154.783,223.278 L129.392,211.393 C142.953,206.124 149.294,201.276 153.046,193.783 C156.958,186.13 158.468,176.097 158.468,152.772 L158.468,94.151 L186.377,94.151 L186.377,94.151 Z M140.725,50.296 L168.634,50.296 L168.634,78.205 L140.725,78.205 L140.725,50.296 L140.725,50.296 Z M138.735,94.151 L138.735,160.669 C138.735,180.574 137.485,189.429 133.734,197.342 C130.143,205.255 124.713,211.105 110.731,217.376 L85.34,205.49 C99.32,200.222 105.17,195.374 108.922,187.881 C112.834,180.228 114.344,170.195 114.344,146.87 L114.344,94.151 L138.735,94.151 L138.735,94.151 Z M93.083,50.296 L117.474,50.296 L117.474,78.205 L93.083,78.205 L93.083,50.296 L93.083,50.296 Z" fill="#FFFFFD"></path>
    </g>
</svg>
