<?xml version="1.0" encoding="UTF-8" standalone="no"?>
<svg width="256px" height="256px" viewBox="0 0 256 256" version="1.1" xmlns="http://www.w3.org/2000/svg" xmlns:xlink="http://www.w3.org/1999/xlink" preserveAspectRatio="xMidYMid">
    <g>
        <rect fill="#066DA5" x="0" y="0" width="256" height="256" rx="28"></rect>
        <path d="M150.87,136.489 L150.87,118.356 L168.87,118.356 L168.87,136.489 L150.87,136.489 Z M128.87,136.489 L128.87,118.356 L146.87,118.356 L146.87,136.489 L128.87,136.489 Z M106.87,136.489 L106.87,118.356 L124.87,118.356 L124.87,136.489 L106.87,136.489 Z M84.87,136.489 L84.87,118.356 L102.87,118.356 L102.87,136.489 L84.87,136.489 Z M62.87,136.489 L62.87,118.356 L80.87,118.356 L80.87,136.489 L62.87,136.489 Z M84.87,114.356 L84.87,96.222 L102.87,96.222 L102.87,114.356 L84.87,114.356 Z M106.87,114.356 L106.87,96.222 L124.87,96.222 L124.87,114.356 L106.87,114.356 Z M128.87,114.356 L128.87,96.222 L146.87,96.222 L146.87,114.356 L128.87,114.356 Z M84.87,92.222 L84.87,74.089 L102.87,74.089 L102.87,92.222 L84.87,92.222 Z" fill="#FFFFFF"></path>
        <path d="M193.87,122.356 C193.87,122.356 184.87,118.356 178.87,118.356 C172.87,118.356 150.87,118.356 150.87,118.356 L150.87,136.489 C150.87,136.489 172.87,136.489 178.87,136.489 C184.87,136.489 193.87,132.489 193.87,132.489 C193.87,132.489 198.87,146.489 188.87,158.489 C178.87,170.489 158.87,176.489 138.87,176.489 C118.87,176.489 98.87,170.489 88.87,158.489 C78.87,146.489 83.87,132.489 83.87,132.489 L193.87,122.356 Z" fill="#FFFFFF"></path>
    </g>
</svg>
