<?xml version="1.0" encoding="UTF-8" standalone="no"?>
<svg width="256px" height="256px" viewBox="0 0 256 256" version="1.1" xmlns="http://www.w3.org/2000/svg" xmlns:xlink="http://www.w3.org/1999/xlink" preserveAspectRatio="xMidYMid">
    <g>
        <path d="M128,0 C57.308,0 0,57.308 0,128 C0,198.692 57.308,256 128,256 C198.692,256 256,198.692 256,128 C256,57.308 198.692,0 128,0 Z" fill="#000000"></path>
        <path d="M128,122.922 C121.077,122.922 115.384,124.308 110.769,127.077 C106.154,129.846 102.769,133.538 100.308,138.462 C97.846,143.385 96.615,148.923 96.615,155.077 C96.615,161.231 97.846,166.769 100.308,171.692 C102.769,176.615 106.154,180.308 110.769,183.077 C115.384,185.846 121.077,187.231 128,187.231 C134.923,187.231 140.615,185.846 145.231,183.077 C149.846,180.308 153.231,176.615 155.692,171.692 C158.154,166.769 159.385,161.231 159.385,155.077 C159.385,148.923 158.154,143.385 155.692,138.462 C153.231,133.538 149.846,129.846 145.231,127.077 C140.615,124.308 134.923,122.922 128,122.922 Z M128,177.231 C119.077,177.231 112.308,174.769 107.692,169.846 C103.077,164.923 100.769,158.154 100.769,149.538 C100.769,140.923 103.077,134.154 107.692,129.231 C112.308,124.308 119.077,121.846 128,121.846 C136.923,121.846 143.692,124.308 148.308,129.231 C152.923,134.154 155.231,140.923 155.231,149.538 C155.231,158.154 152.923,164.923 148.308,169.846 C143.692,174.769 136.923,177.231 128,177.231 Z" fill="#FFFFFF"></path>
        <path d="M173.538,68.769 L173.538,155.077 C173.538,160.615 172.923,165.538 171.692,169.846 C170.462,174.154 168.615,177.846 166.154,180.923 C163.692,184 160.615,186.462 156.923,188.308 C153.231,190.154 149.077,191.385 144.462,192 C139.846,192.615 134.769,192.923 129.231,192.923 L128,192.923 L128,182.923 L129.231,182.923 C136.923,182.923 143.077,181.846 147.692,179.692 C152.308,177.538 155.692,174 157.846,169.077 C160,164.154 161.077,157.538 161.077,149.231 L161.077,68.769 L173.538,68.769 Z" fill="#FFFFFF"></path>
        <path d="M89.846,68.769 L102.308,68.769 L102.308,80 L89.846,80 L89.846,68.769 Z" fill="#FFFFFF"></path>
        <path d="M89.846,89.846 L102.308,89.846 L102.308,182.923 L89.846,182.923 L89.846,89.846 Z" fill="#FFFFFF"></path>
    </g>
</svg>
