<?xml version="1.0" encoding="UTF-8" standalone="no"?>
<svg width="256px" height="256px" viewBox="0 0 256 256" version="1.1" xmlns="http://www.w3.org/2000/svg" xmlns:xlink="http://www.w3.org/1999/xlink" preserveAspectRatio="xMidYMid">
    <g>
        <rect fill="#0ACF83" x="0" y="0" width="256" height="256" rx="28"></rect>
        <path d="M128,128 C128,110.327 142.327,96 160,96 C177.673,96 192,110.327 192,128 C192,145.673 177.673,160 160,160 C142.327,160 128,145.673 128,128 Z" fill="#1ABCFE"></path>
        <path d="M64,192 C64,174.327 78.327,160 96,160 L128,160 L128,192 C128,209.673 113.673,224 96,224 C78.327,224 64,209.673 64,192 Z" fill="#0ACF83"></path>
        <path d="M128,32 L128,96 L160,96 C177.673,96 192,81.673 192,64 C192,46.327 177.673,32 160,32 L128,32 Z" fill="#FF7262"></path>
        <path d="M64,64 C64,81.673 78.327,96 96,96 L128,96 L128,32 L96,32 C78.327,32 64,46.327 64,64 Z" fill="#F24E1E"></path>
        <path d="M64,128 C64,145.673 78.327,160 96,160 L128,160 L128,96 L96,96 C78.327,96 64,110.327 64,128 Z" fill="#A259FF"></path>
    </g>
</svg>
