<?xml version="1.0" encoding="UTF-8" standalone="no"?>
<svg width="256px" height="256px" viewBox="0 0 256 256" version="1.1" xmlns="http://www.w3.org/2000/svg" xmlns:xlink="http://www.w3.org/1999/xlink" preserveAspectRatio="xMidYMid">
    <g>
        <path d="M0,0 L256,0 L256,256 L0,256 L0,0 Z" fill="#E44D26"></path>
        <path d="M128,40 L48,40 L53.333,100 L128,100 L128,120 L76,120 L80,180 L128,196 L128,216 L40,180 L32,40 L128,40 Z" fill="#FFFFFF"></path>
        <path d="M128,40 L208,40 L202.667,100 L128,100 L128,120 L180,120 L176,180 L128,196 L128,216 L216,180 L224,40 L128,40 Z" fill="#FFFFFF"></path>
    </g>
</svg>
