<?xml version="1.0" encoding="UTF-8" standalone="no"?>
<svg width="256px" height="256px" viewBox="0 0 256 256" version="1.1" xmlns="http://www.w3.org/2000/svg" xmlns:xlink="http://www.w3.org/1999/xlink" preserveAspectRatio="xMidYMid">
    <g>
        <path d="M0,0 L256,0 L256,256 L0,256 L0,0 Z" fill="#F7DF1E"></path>
        <path d="M67.311746,213.932292 L86.902654,202.076241 C90.6821079,208.777346 94.1202286,214.447137 102.367086,214.447137 C110.272203,214.447137 115.256076,211.354819 115.256076,199.326883 L115.256076,117.528787 L139.313575,117.528787 L139.313575,199.666997 C139.313575,224.58433 124.707759,235.925943 103.3984,235.925943 C84.1532952,235.925943 72.9819429,225.958603 67.3113397,213.93026" fill="#000000"></path>
        <path d="M152.380952,211.354413 L171.969422,200.0128 C177.125994,208.433981 183.827911,214.619835 195.684368,214.619835 C205.652521,214.619835 212.009041,209.635962 212.009041,202.76031 C212.009041,194.505839 205.479416,191.759472 193.481542,186.950746 L187.420573,184.550289 C168.610819,177.196718 156.323656,168.032927 156.323656,147.308438 C156.323656,128.499683 171.055033,114.1 194.826835,114.1 C211.613278,114.1 223.899608,120.803096 232.66339,135.408973 L214.153924,147.80716 C210.051964,139.722269 205.239125,136.624617 194.826835,136.624617 C184.067387,136.624617 177.125994,143.566009 177.125994,151.650901 C177.125994,161.619152 184.067387,164.365522 195.345134,168.83459 L201.406104,171.235048 C223.730514,179.762719 235.841392,188.582008 235.841392,209.821602 C235.841392,232.173805 218.542252,245 196.362141,245 C174.699777,245 160.441153,233.030187 152.216297,216.593015" fill="#000000"></path>
    </g>
</svg>
