<?xml version="1.0" encoding="UTF-8" standalone="no"?>
<svg width="256px" height="256px" viewBox="0 0 256 256" version="1.1" xmlns="http://www.w3.org/2000/svg" xmlns:xlink="http://www.w3.org/1999/xlink" preserveAspectRatio="xMidYMid">
    <g>
        <rect fill="#001E2B" x="0" y="0" width="256" height="256" rx="28"></rect>
        <path d="M128,40 C128,40 89.3,68.9 89.3,128 C89.3,187.1 128,216 128,216 C128,216 128,216 128,216 C128,216 166.7,187.1 166.7,128 C166.7,68.9 128,40 128,40 Z" fill="#10AA50"></path>
        <path d="M128,40 C128,40 89.3,68.9 89.3,128 C89.3,187.1 128,216 128,216 C128,216 128,216 128,216 C128,216 128,187.1 128,128 C128,68.9 128,40 128,40 Z" fill="#B8C4C2"></path>
    </g>
</svg>
