<?xml version="1.0" encoding="UTF-8" standalone="no"?>
<svg width="256px" height="256px" viewBox="0 0 256 256" version="1.1" xmlns="http://www.w3.org/2000/svg" xmlns:xlink="http://www.w3.org/1999/xlink" preserveAspectRatio="xMidYMid">
    <g>
        <path d="M128,0 C57.308,0 0,57.308 0,128 C0,198.692 57.308,256 128,256 C198.692,256 256,198.692 256,128 C256,57.308 198.692,0 128,0 Z" fill="#00758F"></path>
        <path d="M88.5,114.5 L88.5,149 L98.5,149 L98.5,124.5 L108.5,149 L118.5,149 L128.5,124.5 L128.5,149 L138.5,149 L138.5,114.5 L123.5,114.5 L113.5,139 L103.5,114.5 L88.5,114.5 Z M148.5,114.5 L148.5,149 L158.5,149 L158.5,137 L168.5,137 C175.5,137 181.5,131 181.5,124 C181.5,117 175.5,114.5 168.5,114.5 L148.5,114.5 Z M158.5,124.5 L168.5,124.5 C170.5,124.5 171.5,125.5 171.5,127.5 C171.5,129.5 170.5,130.5 168.5,130.5 L158.5,130.5 L158.5,124.5 Z" fill="#FFFFFF"></path>
    </g>
</svg>
