<?xml version="1.0" encoding="UTF-8" standalone="no"?>
<svg width="256px" height="256px" viewBox="0 0 256 256" version="1.1" xmlns="http://www.w3.org/2000/svg" xmlns:xlink="http://www.w3.org/1999/xlink" preserveAspectRatio="xMidYMid">
    <g>
        <path d="M0,0 L256,0 L256,256 L0,256 L0,0 Z" fill="#539E43"></path>
        <path d="M120.5,188.5 L88.5,170.5 L88.5,134.5 L120.5,152.5 L120.5,188.5 Z M124.5,188.5 L156.5,170.5 L156.5,134.5 L124.5,152.5 L124.5,188.5 Z M88.5,130.5 L120.5,112.5 L152.5,130.5 L120.5,148.5 L88.5,130.5 Z" fill="#FFFFFF"></path>
        <path d="M120.5,67.5 L88.5,85.5 L88.5,121.5 L120.5,103.5 L120.5,67.5 Z M124.5,67.5 L156.5,85.5 L156.5,121.5 L124.5,103.5 L124.5,67.5 Z M156.5,125.5 L188.5,107.5 L188.5,71.5 L156.5,89.5 L156.5,125.5 Z M84.5,125.5 L52.5,107.5 L52.5,71.5 L84.5,89.5 L84.5,125.5 Z" fill="#FFFFFF"></path>
    </g>
</svg>
