<?xml version="1.0" encoding="UTF-8" standalone="no"?>
<svg width="256px" height="256px" viewBox="0 0 256 256" version="1.1" xmlns="http://www.w3.org/2000/svg" xmlns:xlink="http://www.w3.org/1999/xlink" preserveAspectRatio="xMidYMid">
    <g>
        <path d="M128,0 C57.308,0 0,57.308 0,128 C0,198.692 57.308,256 128,256 C198.692,256 256,198.692 256,128 C256,57.308 198.692,0 128,0 Z" fill="#336791"></path>
        <path d="M131.383,150.417 C131.383,150.417 131.383,150.417 131.383,150.417 C131.383,150.417 131.383,150.417 131.383,150.417 Z" fill="#FFFFFF"></path>
        <path d="M175.683,172.859 C175.683,172.859 175.683,172.859 175.683,172.859 C175.683,172.859 175.683,172.859 175.683,172.859 Z" fill="#FFFFFF"></path>
        <path d="M152.604,130.495 C152.604,130.495 152.604,130.495 152.604,130.495 C152.604,130.495 152.604,130.495 152.604,130.495 Z" fill="#FFFFFF"></path>
        <path d="M167.681,143.182 C167.681,143.182 167.681,143.182 167.681,143.182 C167.681,143.182 167.681,143.182 167.681,143.182 Z" fill="#FFFFFF"></path>
        <path d="M156.361,156.091 C156.361,156.091 156.361,156.091 156.361,156.091 C156.361,156.091 156.361,156.091 156.361,156.091 Z" fill="#FFFFFF"></path>
        <path d="M128,68.769 C102.769,68.769 82.462,89.077 82.462,114.308 C82.462,139.538 102.769,159.846 128,159.846 C153.231,159.846 173.538,139.538 173.538,114.308 C173.538,89.077 153.231,68.769 128,68.769 Z M128,149.846 C108.308,149.846 92.462,134 92.462,114.308 C92.462,94.615 108.308,78.769 128,78.769 C147.692,78.769 163.538,94.615 163.538,114.308 C163.538,134 147.692,149.846 128,149.846 Z" fill="#FFFFFF"></path>
        <path d="M128,88.769 C113.846,88.769 102.462,100.154 102.462,114.308 C102.462,128.462 113.846,139.846 128,139.846 C142.154,139.846 153.538,128.462 153.538,114.308 C153.538,100.154 142.154,88.769 128,88.769 Z M128,129.846 C119.385,129.846 112.462,122.923 112.462,114.308 C112.462,105.692 119.385,98.769 128,98.769 C136.615,98.769 143.538,105.692 143.538,114.308 C143.538,122.923 136.615,129.846 128,129.846 Z" fill="#FFFFFF"></path>
    </g>
</svg>
