<?xml version="1.0" encoding="UTF-8" standalone="no"?>
<svg width="256px" height="256px" viewBox="0 0 256 256" version="1.1" xmlns="http://www.w3.org/2000/svg" xmlns:xlink="http://www.w3.org/1999/xlink" preserveAspectRatio="xMidYMid">
    <g>
        <path d="M0,0 L256,0 L256,256 L0,256 L0,0 Z" fill="#FFD43B"></path>
        <path d="M127.7,12.5 C62.7,12.5 66.9,43.5 66.9,43.5 L67,75.6 L128.8,75.6 L128.8,85.6 L42.1,85.6 C42.1,85.6 12,82.3 12,128.1 C12,173.9 38.5,172.1 38.5,172.1 L60.8,172.1 L60.8,138.9 C60.8,138.9 59.9,112.4 87.4,112.4 L148.9,112.4 C148.9,112.4 174.2,112.8 174.2,88 L174.2,46.7 C174.2,46.7 179.3,12.5 127.7,12.5 Z M94.9,37.3 C100.6,37.3 105.2,41.9 105.2,47.6 C105.2,53.3 100.6,57.9 94.9,57.9 C89.2,57.9 84.6,53.3 84.6,47.6 C84.6,41.9 89.2,37.3 94.9,37.3 Z" fill="#3776AB"></path>
        <path d="M128.3,243.5 C193.3,243.5 189.1,212.5 189.1,212.5 L189,180.4 L127.2,180.4 L127.2,170.4 L213.9,170.4 C213.9,170.4 244,173.7 244,127.9 C244,82.1 217.5,83.9 217.5,83.9 L195.2,83.9 L195.2,117.1 C195.2,117.1 196.1,143.6 168.6,143.6 L107.1,143.6 C107.1,143.6 81.8,143.2 81.8,168 L81.8,209.3 C81.8,209.3 76.7,243.5 128.3,243.5 Z M161.1,218.7 C155.4,218.7 150.8,214.1 150.8,208.4 C150.8,202.7 155.4,198.1 161.1,198.1 C166.8,198.1 171.4,202.7 171.4,208.4 C171.4,214.1 166.8,218.7 161.1,218.7 Z" fill="#3776AB"></path>
    </g>
</svg>
