<?xml version="1.0" encoding="UTF-8" standalone="no"?>
<svg width="256px" height="256px" viewBox="0 0 256 256" version="1.1" xmlns="http://www.w3.org/2000/svg" xmlns:xlink="http://www.w3.org/1999/xlink" preserveAspectRatio="xMidYMid">
    <g>
        <rect fill="#222222" x="0" y="0" width="256" height="256" rx="28"></rect>
        <path d="M128,94.1393 C146.7607,94.1393 162,109.3787 162,128.1393 C162,146.9 146.7607,162.1393 128,162.1393 C109.2393,162.1393 94,146.9 94,128.1393 C94,109.3787 109.2393,94.1393 128,94.1393" fill="#61DAFB"></path>
        <path d="M128,75.8107 C160.5,75.8107 189.5,86.8107 208,104.8107 C226.5,122.8107 235.5,146.3107 232,169.8107 C228.5,193.3107 212.5,214.3107 189.5,226.8107 C166.5,239.3107 138,242.3107 112,235.3107 C86,228.3107 64,212.3107 52,190.3107 C40,168.3107 38.5,142.3107 47.5,119.3107 C56.5,96.3107 75,77.8107 98.5,68.8107 C107.5,65.3107 117.5,63.3107 128,63.3107 M128,63.3107 C95.5,63.3107 66.5,74.3107 48,92.3107 C29.5,110.3107 20.5,133.8107 24,157.3107 C27.5,180.8107 43.5,201.8107 66.5,214.3107 C89.5,226.8107 118,229.8107 144,222.8107 C170,215.8107 192,199.8107 204,177.8107 C216,155.8107 217.5,129.8107 208.5,106.8107 C199.5,83.8107 181,65.3107 157.5,56.3107 C148.5,52.8107 138.5,50.8107 128,50.8107" fill="#61DAFB"></path>
    </g>
</svg>
