<?xml version="1.0" encoding="UTF-8" standalone="no"?>
<svg width="256px" height="256px" viewBox="0 0 256 256" version="1.1" xmlns="http://www.w3.org/2000/svg" xmlns:xlink="http://www.w3.org/1999/xlink" preserveAspectRatio="xMidYMid">
    <g>
        <path d="M177.381,169.733 C186.815,169.733 194.506,162.082 194.506,152.697 C194.506,143.312 186.815,135.661 177.381,135.661 C167.946,135.661 160.256,143.312 160.256,152.697 C160.256,162.082 167.946,169.733 177.381,169.733 Z" fill="#764ABC"></path>
        <path d="M128,190.154 C136.122,190.154 142.713,183.556 142.713,175.424 C142.713,167.292 136.122,160.693 128,160.693 C119.878,160.693 113.287,167.292 113.287,175.424 C113.287,183.556 119.878,190.154 128,190.154 Z" fill="#764ABC"></path>
        <path d="M94.664,156.629 C103.403,156.629 110.506,149.528 110.506,140.791 C110.506,132.054 103.403,124.953 94.664,124.953 C85.925,124.953 78.822,132.054 78.822,140.791 C78.822,149.528 85.925,156.629 94.664,156.629 Z" fill="#764ABC"></path>
        <path d="M177.381,118.538 C171.466,118.538 166.155,120.641 162.286,124.195 C158.418,127.75 156.066,132.594 156.066,137.928 C156.066,143.262 158.418,148.106 162.286,151.661 C166.155,155.215 171.466,157.318 177.381,157.318 C183.296,157.318 188.607,155.215 192.476,151.661 C196.344,148.106 198.696,143.262 198.696,137.928 C198.696,132.594 196.344,127.75 192.476,124.195 C188.607,120.641 183.296,118.538 177.381,118.538 Z" fill="#764ABC"></path>
        <path d="M94.664,107.829 C88.749,107.829 83.438,109.932 79.569,113.486 C75.701,117.041 73.349,121.885 73.349,127.219 C73.349,132.553 75.701,137.397 79.569,140.952 C83.438,144.506 88.749,146.609 94.664,146.609 C100.579,146.609 105.89,144.506 109.759,140.952 C113.627,137.397 115.979,132.553 115.979,127.219 C115.979,121.885 113.627,117.041 109.759,113.486 C105.89,109.932 100.579,107.829 94.664,107.829 Z" fill="#764ABC"></path>
        <path d="M128,65.693 C122.085,65.693 116.774,67.796 112.905,71.35 C109.037,74.905 106.685,79.749 106.685,85.083 C106.685,90.417 109.037,95.261 112.905,98.816 C116.774,102.37 122.085,104.473 128,104.473 C133.915,104.473 139.226,102.37 143.095,98.816 C146.963,95.261 149.315,90.417 149.315,85.083 C149.315,79.749 146.963,74.905 143.095,71.35 C139.226,67.796 133.915,65.693 128,65.693 Z" fill="#764ABC"></path>
    </g>
</svg>
