<?xml version="1.0" encoding="UTF-8"?>
<svg width="256px" height="256px" viewBox="0 0 256 256" version="1.1" xmlns="http://www.w3.org/2000/svg" preserveAspectRatio="xMidYMid">
    <title>TypeScript</title>
    <g>
        <rect fill="#3178C6" x="0" y="0" width="256" height="256" rx="28"></rect>
        <path d="M149.2,200.3 L149.2,217.4 C152.4,219.1 156.2,220.4 160.6,221.3 C165,222.2 169.5,222.7 174.1,222.7 C178.6,222.7 182.8,222.2 186.7,221.3 C190.6,220.4 194,218.9 196.9,217 C199.8,215.1 202.1,212.7 203.8,209.8 C205.5,206.9 206.4,203.4 206.4,199.4 C206.4,196.7 206,194.3 205.2,192.2 C204.4,190.1 203.1,188.2 201.3,186.5 C199.5,184.8 197.2,183.2 194.3,181.7 C191.4,180.2 187.9,178.7 183.8,177.2 C180.6,176 177.8,174.9 175.3,173.8 C172.8,172.7 170.7,171.6 169,170.4 C167.3,169.2 166,168 165.1,166.7 C164.2,165.4 163.8,163.9 163.8,162.2 C163.8,160.6 164.2,159.1 165.1,157.9 C166,156.7 167.2,155.6 168.7,154.8 C170.2,154 172,153.3 174,152.9 C176,152.5 178.2,152.3 180.5,152.3 C182.3,152.3 184.2,152.4 186.2,152.7 C188.2,153 190.2,153.5 192.2,154.1 C194.2,154.7 196.1,155.5 198,156.4 C199.9,157.3 201.6,158.3 203.2,159.5 L203.2,143.5 C200.5,142.2 197.4,141.2 193.9,140.5 C190.4,139.8 186.4,139.5 181.9,139.5 C177.5,139.5 173.3,140 169.4,141 C165.5,142 162.1,143.5 159.2,145.6 C156.3,147.7 154,150.3 152.3,153.5 C150.6,156.7 149.8,160.5 149.8,164.8 C149.8,169.5 150.8,173.5 152.9,176.9 C155,180.3 158.4,183.3 163.2,185.9 C166.2,187.4 169.3,188.8 172.5,190 C175.7,191.2 178.5,192.4 181,193.6 C183.5,194.8 185.5,196.1 187,197.5 C188.5,198.9 189.2,200.5 189.2,202.4 C189.2,203.9 188.8,205.2 187.9,206.4 C187,207.6 185.8,208.5 184.3,209.3 C182.8,210.1 181,210.6 179,211 C177,211.4 174.9,211.6 172.6,211.6 C167.9,211.6 163.4,210.8 159.1,209.2 C154.8,207.6 151.1,205.3 148,202.4 L149.2,200.3 L149.2,200.3 Z M109.7,144.8 L147.6,144.8 L147.6,133.5 L58.5,133.5 L58.5,144.8 L96.2,144.8 L96.2,221.1 L109.7,221.1 L109.7,144.8 L109.7,144.8 Z" fill="#FFFFFF" fill-rule="nonzero"></path>
    </g>
</svg>
